# xmcd
#
# Track frame offsets: 
#        225
#        13841
#        31068
#        48143
#        62188
#        76376
#        90306
#        104868
#        124111
#        137069
#        148105
#        162156
#
# Disc length: 2414 seconds
#
# Revision: 0
# Processed by: cddbd v1.5.2PL0 Copyright (c) Steve Scherf et al.
# Submitted via: ExactAudioCopy v0.90b4
#
DISCID=9f096b0c
DTITLE=Elin Örebrand - För evigt och för alltid
DYEAR=2010
DGENRE=Pop
TTITLE0=För evigt och för alltid
TTITLE1=Svensson
TTITLE2=Kärleken vit
TTITLE3=Du liknar den jag sökt
TTITLE4=Fel hus i fel värld
TTITLE5=Du bara du
TTITLE6=Som en fjäril på en sommaräng
TTITLE7=Prickens sång
TTITLE8=Lycka i långa penseldrag
TTITLE9=Sluta aldrig prata med varandra
TTITLE10=Min hembygds sjö
TTITLE11=Tystnadens vals
EXTD=
EXTT0=
EXTT1=
EXTT2=
EXTT3=
EXTT4=
EXTT5=
EXTT6=
EXTT7=
EXTT8=
EXTT9=
EXTT10=
EXTT11=
PLAYORDER=
